<svg width="45" height="41" viewBox="0 0 45 41" fill="none" xmlns="http://www.w3.org/2000/svg">
<path d="M4.18922 0C1.88783 0 0.0109863 1.86663 0.0109863 4.18037V10.6633C0.0109863 8.36076 1.87666 6.48295 4.18922 6.48295H20.4665V0H4.18922Z" fill="#592D34"/>
<path d="M40.8217 6.48438H20.4556V12.8891H40.8217C43.1231 12.8891 45 14.7557 45 17.0694V10.6647C45 8.36218 43.1343 6.48438 40.8217 6.48438Z" fill="#592D34"/>
<path d="M40.8217 12.8988H20.4555V6.49414H4.17825C1.87687 6.49414 0 8.36079 0 10.6745V40.5184H41.1233C43.2571 40.5184 44.9776 38.7859 44.9776 36.6622V17.0904C44.9776 14.7878 43.1119 12.91 40.7993 12.91L40.8217 12.8988Z" fill="#FFAC4F"/>
</svg>
