<svg width="45" height="41" viewBox="0 0 45 41" fill="none" xmlns="http://www.w3.org/2000/svg">
<path d="M4.18947 0C1.88808 0 0.0112305 1.86663 0.0112305 4.18037V10.6633C0.0112305 8.36076 1.87691 6.48295 4.18947 6.48295H20.4668V0H4.18947Z" fill="#592D34"/>
<path d="M40.8217 6.4834H20.4556V12.8881H40.8217C43.1231 12.8881 45 14.7547 45 17.0685V10.6638C45 8.36121 43.1343 6.4834 40.8217 6.4834Z" fill="#592D34"/>
<path d="M40.8217 12.8988H20.4555V6.49414H4.17825C1.87687 6.49414 0 8.36079 0 10.6745V40.5184H41.1233C43.2571 40.5184 44.9776 38.7859 44.9776 36.6622V17.0904C44.9776 14.7878 43.1119 12.91 40.7993 12.91L40.8217 12.8988Z" fill="#00BFE6"/>
</svg>
