<svg width="178" height="119" viewBox="0 0 178 119" fill="none" xmlns="http://www.w3.org/2000/svg">
<path d="M0 40.5622C0 52.1146 6.80954 60.6613 17.3361 60.6613C23.7953 60.6613 28.3045 57.7466 31.6712 54.4828V59.2495H43.706V28.1294L48.2152 29.2831V20.4632C42.4568 18.1709 34.8551 16.1367 27.6799 16.1367C10.7856 16.1367 0 25.3058 0 40.5622ZM31.3208 45.8451C28.3198 48.6686 25.3035 50.2474 21.7692 50.2474C15.9346 50.2474 12.5679 45.8451 12.5679 39.0442C12.5679 31.378 17.6103 26.3532 26.3698 26.3532C28.137 26.3532 29.8279 26.4443 31.3208 26.6113V45.8299V45.8451Z" fill="#592D34"/>
<path d="M109.806 16.1367C103.575 16.1367 99.1421 18.854 95.8211 21.9812V17.4726H83.436V48.6838L78.9268 47.5301V56.35C80.3283 56.9117 81.8517 57.4582 83.436 57.9591V73.3067H95.8211V60.5095C97.0398 60.6157 98.2433 60.6765 99.4468 60.6765C116.341 60.6765 127.142 51.5074 127.142 36.251C127.142 24.6986 120.332 16.1519 109.806 16.1519M100.787 50.4448C99.0202 50.4448 97.3293 50.3537 95.8363 50.1867V30.9681C98.8374 28.1445 101.854 26.5658 105.388 26.5658C111.223 26.5658 114.589 30.9681 114.589 37.769C114.589 45.4352 109.547 50.4599 100.787 50.4599" fill="#592D34"/>
<path d="M69.9088 17.4609H57.3408V59.253H69.9088V17.4609Z" fill="#592D34"/>
<path d="M177.932 36.5417C177.932 23.623 171 15.3496 157.488 15.3496C143.975 15.3496 134.759 25.4447 134.759 38.8187C134.759 52.9215 144.889 61.377 159.59 61.377C165.211 61.377 169.858 60.6332 174.062 58.9633L171.152 50.1131C168.532 50.6748 165.684 51.0087 162.515 51.0087C153.481 51.0087 149.002 48.003 147.723 42.0067H177.657C177.84 40.185 177.932 38.2722 177.932 36.5568M147.631 33.2778C148.637 28.1772 151.745 24.7312 157.305 24.7312C163.139 24.7312 165.882 28.7389 165.882 33.2778H147.631Z" fill="#592D34"/>
<path d="M69.9088 3.9043H57.3408V12.1625H69.9088V3.9043Z" fill="#592D34"/>
<path d="M170.01 12.1596V4.15947L156.97 0L143.945 4.15947V12.1596L156.97 8.13678L170.01 12.1596Z" fill="#592D34"/>
<path d="M35.8307 102.927L39.8524 92.8164H41.8785L45.9002 102.927H43.9198L43.1582 100.968H38.5423L37.7958 102.927H35.8154H35.8307ZM39.0907 99.4655H42.6402L40.8731 94.7595L39.0755 99.4655H39.0907Z" fill="#592D34"/>
<path d="M47.3933 102.927V92.8164H49.2214V101.333H53.8068V102.942H47.3933V102.927Z" fill="#592D34"/>
<path d="M55.5889 102.927V92.8164H57.4169V102.927H55.5889Z" fill="#592D34"/>
<path d="M58.8797 102.927L62.9015 92.8164H64.9276L68.9493 102.927H66.9689L66.2072 100.968H61.5914L60.8449 102.927H58.8645H58.8797ZM62.1398 99.4655H65.6893L63.9221 94.7595L62.1245 99.4655H62.1398Z" fill="#592D34"/>
<path d="M70.427 102.927V92.8164H72.4074L77.2975 100.225V92.8164H79.1255V102.927H77.1451L72.2551 95.5185V102.927H70.427Z" fill="#592D34"/>
<path d="M86.209 103.078C85.1274 103.078 84.1982 102.85 83.406 102.41C82.6139 101.955 82.0045 101.347 81.578 100.558C81.1514 99.7686 80.9534 98.8729 80.9534 97.871C80.9534 96.8691 81.1666 95.9582 81.5932 95.184C82.0197 94.3946 82.6291 93.7874 83.4213 93.332C84.2134 92.8766 85.1427 92.6641 86.2243 92.6641C86.9098 92.6641 87.5496 92.7551 88.1133 92.9373C88.6922 93.1195 89.2406 93.4079 89.7738 93.7874L89.073 95.184C88.616 94.8652 88.159 94.6375 87.6867 94.4857C87.2145 94.3339 86.727 94.258 86.209 94.258C85.5235 94.258 84.9294 94.4098 84.4115 94.6983C83.9087 95.0019 83.5127 95.4117 83.2232 95.9582C82.9338 96.5047 82.7967 97.1271 82.7967 97.8558C82.7967 98.5845 82.9338 99.2069 83.2232 99.7382C83.5127 100.285 83.9087 100.695 84.4115 100.998C84.9142 101.302 85.5083 101.454 86.209 101.454C86.727 101.454 87.2145 101.378 87.6867 101.226C88.159 101.074 88.616 100.846 89.073 100.528L89.7738 101.924C89.2406 102.304 88.6769 102.592 88.1133 102.774C87.5344 102.956 86.9098 103.048 86.2243 103.048L86.209 103.078ZM85.5235 105.902C85.3864 105.902 85.2036 105.902 84.9903 105.871C84.7771 105.856 84.579 105.81 84.381 105.765V104.9C84.5486 104.945 84.7314 104.96 84.9294 104.991C85.1274 104.991 85.295 105.006 85.4321 105.006C85.6606 105.006 85.8434 104.96 85.9653 104.884C86.0872 104.808 86.1481 104.687 86.1481 104.52C86.1481 104.353 86.0872 104.232 85.9653 104.156C85.8434 104.08 85.6606 104.034 85.4321 104.034H85.0817V103.594L85.4778 102.759H86.3309L85.9653 103.594C86.3766 103.594 86.6965 103.685 86.925 103.867C87.1536 104.049 87.2754 104.308 87.2754 104.626C87.2754 105.006 87.1231 105.325 86.8336 105.552C86.529 105.78 86.1024 105.902 85.5388 105.902H85.5235Z" fill="#592D34"/>
<path d="M90.6422 102.927L94.6639 92.8164H96.69L100.712 102.927H98.7314L97.9697 100.968H93.3538L92.6074 102.927H90.627H90.6422ZM93.9022 99.4655H97.4517L95.6846 94.7595L93.887 99.4655H93.9022Z" fill="#592D34"/>
<path d="M105.816 102.927V92.8164H110.005C111.269 92.8164 112.214 93.0897 112.854 93.6362C113.478 94.1827 113.798 95.0024 113.798 96.065C113.798 97.1277 113.478 97.9323 112.854 98.4788C112.229 99.0253 111.284 99.2833 110.005 99.2833H107.628V102.927H105.8H105.816ZM107.644 97.7804H109.685C110.431 97.7804 110.98 97.659 111.376 97.4009C111.757 97.1429 111.955 96.7026 111.955 96.0802C111.955 95.4578 111.772 94.972 111.391 94.714C111.01 94.4559 110.447 94.3193 109.685 94.3193H107.644V97.7804Z" fill="#592D34"/>
<path d="M115.565 102.927V92.8164H122.74V94.38H117.393V97.0062H122.283V98.4636H117.393V101.393H122.74V102.957H115.565V102.927Z" fill="#592D34"/>
<path d="M124.69 102.927V92.8164H126.518V101.333H131.103V102.942H124.69V102.927Z" fill="#592D34"/>
<path d="M132.078 102.927L136.1 92.8164H138.126L142.148 102.927H140.168L139.406 100.968H134.79L134.044 102.927H132.063H132.078ZM135.339 99.4655H138.888L137.121 94.7595L135.323 99.4655H135.339Z" fill="#592D34"/>
<path d="M9.18677 118.802V108.691H11.0148V118.802H9.18677Z" fill="#592D34"/>
<path d="M13.2998 118.802V108.691H15.2802L20.1703 116.1V108.691H21.9983V118.802H20.0179L15.1279 111.394V118.802H13.2998Z" fill="#592D34"/>
<path d="M29.067 118.957C27.9854 118.957 27.0561 118.729 26.2639 118.289C25.4718 117.833 24.8624 117.226 24.4359 116.437C24.0093 115.647 23.8113 114.752 23.8113 113.75C23.8113 112.748 24.0246 111.837 24.4511 111.063C24.8777 110.274 25.487 109.666 26.2792 109.211C27.0713 108.756 28.0006 108.543 29.0822 108.543C29.7677 108.543 30.4075 108.634 30.9712 108.816C31.5501 108.998 32.0985 109.287 32.6317 109.666L31.9309 111.063C31.4739 110.744 31.0169 110.516 30.5446 110.365C30.0724 110.213 29.5849 110.137 29.067 110.137C28.3814 110.137 27.7873 110.289 27.2694 110.577C26.7666 110.881 26.3706 111.291 26.0811 111.837C25.7917 112.384 25.6546 113.006 25.6546 113.735C25.6546 114.463 25.7917 115.086 26.0811 115.617C26.3706 116.164 26.7666 116.573 27.2694 116.877C27.7721 117.181 28.3662 117.333 29.067 117.333C29.5849 117.333 30.0724 117.257 30.5446 117.105C31.0169 116.953 31.4739 116.725 31.9309 116.406L32.6317 117.803C32.0985 118.183 31.5349 118.471 30.9712 118.653C30.3923 118.835 29.7677 118.926 29.0822 118.926L29.067 118.957Z" fill="#592D34"/>
<path d="M34.3379 118.802V108.691H36.166V117.208H40.7514V118.817H34.3379V118.802Z" fill="#592D34"/>
<path d="M46.0223 118.955C44.6513 118.955 43.5849 118.606 42.8232 117.908C42.0615 117.209 41.6807 116.131 41.6807 114.644V108.678H43.5087V114.644C43.5087 115.266 43.6001 115.767 43.7982 116.162C43.9962 116.556 44.2857 116.86 44.6665 117.042C45.0474 117.24 45.5044 117.331 46.0223 117.331C46.5403 117.331 47.0125 117.24 47.3934 117.042C47.7742 116.845 48.0484 116.556 48.2465 116.162C48.4445 115.767 48.5359 115.251 48.5359 114.644V108.678H50.364V114.644C50.364 116.116 49.9831 117.209 49.2214 117.908C48.4597 118.606 47.3934 118.955 46.0223 118.955Z" fill="#592D34"/>
<path d="M55.3909 118.957C54.6749 118.957 54.0351 118.851 53.441 118.654C52.8469 118.441 52.268 118.107 51.7043 117.637L52.3899 116.21C52.9383 116.619 53.4562 116.923 53.959 117.12C54.4617 117.318 54.9339 117.409 55.4062 117.409C56.0917 117.409 56.6097 117.272 56.9753 117.014C57.3409 116.756 57.5237 116.377 57.5237 115.906C57.5237 115.587 57.417 115.299 57.1885 115.071C56.96 114.843 56.6401 114.676 56.2136 114.6L54.6597 114.312C53.7304 114.145 53.0602 113.826 52.6488 113.386C52.2375 112.931 52.0395 112.384 52.0395 111.747C52.0395 111.154 52.1614 110.623 52.4203 110.137C52.6793 109.652 53.0754 109.272 53.6086 108.984C54.157 108.695 54.8425 108.559 55.6804 108.559C56.2745 108.559 56.8382 108.634 57.417 108.801C57.9807 108.968 58.5444 109.257 59.0928 109.682L58.4072 111.109C57.935 110.79 57.4932 110.547 57.0514 110.38C56.6096 110.198 56.1679 110.122 55.7261 110.122C55.1167 110.122 54.6597 110.244 54.355 110.502C54.0504 110.76 53.898 111.094 53.898 111.519C53.898 111.838 54.0047 112.096 54.2332 112.293C54.4617 112.49 54.7816 112.627 55.2081 112.703L56.762 112.991C57.6913 113.158 58.3463 113.507 58.7729 114.024C59.1994 114.54 59.3974 115.117 59.3974 115.769C59.3974 116.756 59.0623 117.53 58.392 118.122C57.7217 118.714 56.7315 119.003 55.4214 119.003L55.3909 118.957Z" fill="#592D34"/>
<path d="M59.763 118.804L63.7848 108.694H65.8109L69.8326 118.804H67.8522L67.0905 116.846H62.4747L61.7282 118.804H59.7478H59.763ZM62.3528 107.449C62.3528 107.009 62.3985 106.645 62.5051 106.341C62.6118 106.038 62.7641 105.795 62.9774 105.643C63.1907 105.491 63.4649 105.4 63.8 105.4C64.0285 105.4 64.2266 105.445 64.4094 105.537C64.5922 105.628 64.775 105.749 64.9273 105.871C65.0797 105.992 65.232 106.113 65.3691 106.205C65.5062 106.311 65.6433 106.356 65.7652 106.356C65.9023 106.356 66.0242 106.28 66.1003 106.129C66.1765 105.977 66.2374 105.734 66.2527 105.385H67.2581C67.2581 105.825 67.2124 106.189 67.1058 106.508C66.9991 106.827 66.8468 107.055 66.6335 107.206C66.4202 107.358 66.146 107.434 65.8109 107.434C65.5824 107.434 65.3843 107.389 65.2015 107.298C65.0187 107.206 64.8359 107.1 64.6836 106.979C64.5312 106.857 64.3789 106.736 64.2418 106.645C64.1047 106.554 63.9676 106.508 63.8457 106.508C63.7086 106.508 63.5867 106.584 63.5106 106.736C63.4344 106.888 63.3735 107.115 63.3582 107.449H62.3528ZM63.0231 115.343H66.5726L64.8054 110.637L63.0078 115.343H63.0231Z" fill="#592D34"/>
<path d="M74.9516 118.957C73.87 118.957 72.9407 118.729 72.1485 118.289C71.3564 117.849 70.747 117.226 70.3205 116.437C69.8939 115.647 69.6807 114.752 69.6807 113.75C69.6807 112.748 69.8939 111.837 70.3205 111.063C70.747 110.274 71.3564 109.666 72.1485 109.211C72.9407 108.756 73.87 108.543 74.9516 108.543C76.0332 108.543 76.9625 108.771 77.7394 109.211C78.5315 109.666 79.1257 110.274 79.5674 111.063C79.994 111.852 80.2073 112.748 80.2073 113.75C80.2073 114.752 79.994 115.663 79.5674 116.437C79.1409 117.226 78.5315 117.833 77.7394 118.289C76.9472 118.744 76.018 118.957 74.9516 118.957ZM74.9668 117.348C75.6523 117.348 76.2465 117.196 76.7644 116.892C77.2671 116.589 77.6632 116.164 77.9374 115.617C78.2116 115.071 78.3487 114.448 78.3487 113.735C78.3487 113.021 78.2116 112.384 77.9374 111.837C77.6632 111.291 77.2671 110.866 76.7644 110.577C76.2617 110.274 75.6523 110.137 74.9668 110.137C74.2813 110.137 73.6567 110.289 73.154 110.577C72.6513 110.866 72.24 111.291 71.9657 111.837C71.6915 112.384 71.5544 113.006 71.5544 113.735C71.5544 114.463 71.6915 115.086 71.9657 115.617C72.24 116.164 72.636 116.573 73.154 116.877C73.6719 117.181 74.2661 117.333 74.9668 117.333V117.348Z" fill="#592D34"/>
<path d="M85.6607 118.802V108.691H89.8501C91.1145 108.691 92.059 108.965 92.6988 109.511C93.3234 110.058 93.6433 110.877 93.6433 111.94C93.6433 113.003 93.3234 113.807 92.6988 114.354C92.0742 114.9 91.1297 115.158 89.8501 115.158H87.4736V118.802H85.6455H85.6607ZM87.4888 113.655H89.5301C90.2766 113.655 90.825 113.534 91.2211 113.276C91.602 113.018 91.8 112.578 91.8 111.955C91.8 111.333 91.6172 110.847 91.2363 110.589C90.8555 110.331 90.2918 110.194 89.5301 110.194H87.4888V113.655Z" fill="#592D34"/>
<path d="M95.4107 118.802V108.691H99.6001C100.819 108.691 101.748 108.949 102.403 109.45C103.058 109.951 103.378 110.741 103.378 111.773C103.378 112.623 103.165 113.276 102.738 113.747C102.312 114.217 101.687 114.521 100.864 114.673L103.911 118.786H101.748L98.945 114.809H97.2236V118.786H95.3955L95.4107 118.802ZM97.2388 113.352H99.2801C100.057 113.352 100.621 113.23 100.986 112.988C101.352 112.745 101.535 112.35 101.535 111.803C101.535 111.211 101.367 110.802 101.017 110.559C100.666 110.316 100.088 110.194 99.2801 110.194H97.2388V113.352Z" fill="#592D34"/>
<path d="M110.035 118.957C108.953 118.957 108.024 118.729 107.232 118.289C106.439 117.849 105.83 117.226 105.403 116.437C104.977 115.647 104.764 114.752 104.764 113.75C104.764 112.748 104.977 111.837 105.403 111.063C105.83 110.274 106.439 109.666 107.232 109.211C108.024 108.756 108.953 108.543 110.035 108.543C111.116 108.543 112.045 108.771 112.822 109.211C113.615 109.666 114.209 110.274 114.65 111.063C115.077 111.852 115.29 112.748 115.29 113.75C115.29 114.752 115.077 115.663 114.65 116.437C114.224 117.226 113.615 117.833 112.822 118.289C112.03 118.744 111.101 118.957 110.035 118.957ZM110.05 117.348C110.735 117.348 111.329 117.196 111.847 116.892C112.35 116.589 112.746 116.164 113.02 115.617C113.295 115.071 113.432 114.448 113.432 113.735C113.432 113.021 113.295 112.384 113.02 111.837C112.746 111.291 112.35 110.866 111.847 110.577C111.345 110.274 110.735 110.137 110.05 110.137C109.364 110.137 108.74 110.289 108.237 110.577C107.734 110.866 107.323 111.291 107.049 111.837C106.775 112.384 106.637 113.006 106.637 113.735C106.637 114.463 106.775 115.086 107.049 115.617C107.323 116.164 107.719 116.573 108.237 116.877C108.755 117.181 109.349 117.333 110.05 117.333V117.348Z" fill="#592D34"/>
<path d="M116.936 118.802V108.691H120.516C122.283 108.691 123.623 109.116 124.537 109.967C125.452 110.817 125.924 112.077 125.924 113.747C125.924 115.416 125.467 116.692 124.537 117.526C123.608 118.377 122.268 118.802 120.516 118.802H116.936ZM118.764 117.238H120.47C121.75 117.238 122.664 116.95 123.243 116.373C123.806 115.796 124.096 114.915 124.096 113.747C124.096 112.578 123.806 111.697 123.243 111.12C122.679 110.543 121.75 110.255 120.47 110.255H118.764V117.253V117.238Z" fill="#592D34"/>
<path d="M132.109 118.955C130.738 118.955 129.671 118.606 128.91 117.908C128.148 117.209 127.767 116.131 127.767 114.644V108.678H129.595V114.644C129.595 115.266 129.687 115.767 129.885 116.162C130.083 116.556 130.372 116.86 130.753 117.042C131.134 117.24 131.591 117.331 132.109 117.331C132.627 117.331 133.099 117.24 133.48 117.042C133.861 116.845 134.135 116.556 134.333 116.162C134.531 115.767 134.622 115.251 134.622 114.644V108.678H136.45V114.644C136.45 116.116 136.07 117.209 135.308 117.908C134.546 118.606 133.48 118.955 132.109 118.955Z" fill="#592D34"/>
<path d="M141.28 118.803V110.287H138.202V108.678H146.154V110.287H143.108V118.803H141.264H141.28Z" fill="#592D34"/>
<path d="M147.952 118.802V108.691H149.78V118.802H147.952Z" fill="#592D34"/>
<path d="M155.264 118.802L151.242 108.691H153.284L156.3 116.722L159.301 108.691H161.342L157.321 118.802H155.295H155.264Z" fill="#592D34"/>
<path d="M159.545 118.802L163.567 108.691H165.593L169.615 118.802H167.634L166.873 116.843H162.257L161.51 118.802H159.53H159.545ZM162.805 115.34H166.355L164.587 110.635L162.79 115.34H162.805Z" fill="#592D34"/>
</svg>
