<svg width="148" height="61" viewBox="0 0 148 61" fill="none" xmlns="http://www.w3.org/2000/svg">
<path d="M25.8948 38.15C23.4139 40.5016 20.9181 41.8174 17.9888 41.8174C13.1616 41.8174 10.3768 38.15 10.3768 32.4963C10.3768 26.1121 14.5465 21.9244 21.7849 21.9244C23.2495 21.9244 24.6344 21.9995 25.8848 22.1395V38.135L25.8948 38.145M0 33.7472C0 43.3585 5.63428 50.4781 14.3323 50.4781C19.6826 50.4781 23.4139 48.0515 26.1887 45.3448V49.3024H36.1371V23.4054L39.8684 24.351V17.0162C35.1158 15.1049 28.824 13.4238 22.8958 13.4238C8.92716 13.4288 0 21.0538 0 33.7472Z" fill="#592D34"/>
<path d="M83.3434 41.9674C81.8788 41.9674 80.4939 41.8924 79.2435 41.7523V25.7568C81.7294 23.4053 84.2252 22.0894 87.1494 22.0894C91.9817 22.0894 94.7664 25.7568 94.7664 31.4105C94.7664 37.7947 90.5918 41.9824 83.3534 41.9824M90.806 13.4287C85.65 13.4287 81.9934 15.6902 79.2435 18.2869V14.5294H69.0062V40.5015L65.2749 39.5508V46.8856C66.4356 47.351 67.696 47.8063 69.0062 48.2265V60.9999H79.2435V50.3429C80.2548 50.433 81.2511 50.483 82.2475 50.483C96.2161 50.483 105.143 42.843 105.143 30.1647C105.143 20.5534 99.509 13.4337 90.806 13.4337" fill="#592D34"/>
<path d="M57.8074 14.5295H47.4207V49.3123H57.8074V14.5295Z" fill="#592D34"/>
<path d="M122.076 27.6681C122.908 23.4303 125.468 20.5484 130.072 20.5484C134.675 20.5484 137.17 23.8756 137.17 27.6681H122.076ZM147.129 30.3999C147.129 19.6528 141.395 12.7583 130.221 12.7583C119.047 12.7583 111.435 21.1538 111.435 32.2811C111.435 44.0138 119.804 51.0434 131.96 51.0434C136.612 51.0434 140.448 50.423 143.926 49.0321L141.519 41.6723C139.352 42.1426 137.006 42.4178 134.381 42.4178C126.903 42.4178 123.212 39.9161 122.151 34.9178H146.905C147.054 33.4018 147.129 31.8208 147.129 30.3799" fill="#592D34"/>
<path d="M57.8074 3.2522H47.4207V10.1167H57.8074V3.2522Z" fill="#592D34"/>
<path d="M140.588 10.1166V3.46227L129.807 0L119.037 3.46227V10.1166L129.807 6.76444L140.588 10.1166Z" fill="#592D34"/>
</svg>
