<svg width="262" height="62" viewBox="0 0 262 62" fill="none" xmlns="http://www.w3.org/2000/svg">
<g clip-path="url(#clip0_2726_1287)">
<path d="M170.057 20.2462H172.998L171.538 16.3262L170.047 20.2462H170.057ZM167.361 23.1299L170.691 14.7041H172.37L175.7 23.1299H174.06L173.427 21.4978H169.604L168.986 23.1299H167.346H167.361Z" fill="#592D34"/>
<path d="M176.92 23.1299V14.7041H178.435V21.8032H182.234V23.1399H176.92V23.1299Z" fill="#592D34"/>
<path d="M183.725 23.1299V14.7041H185.235V23.1299H183.725Z" fill="#592D34"/>
<path d="M189.134 20.2462H192.075L190.609 16.3262L189.124 20.2462H189.134ZM186.437 23.1299L189.767 14.7041H191.447L194.776 23.1299H193.136L192.503 21.4978H188.68L188.062 23.1299H186.422H186.437Z" fill="#592D34"/>
<path d="M196.012 23.1299V14.7041H197.652L201.699 20.877V14.7041H203.215V23.1299H201.575L197.527 16.957V23.1299H196.012Z" fill="#592D34"/>
<path d="M208.505 25.6081C208.391 25.6081 208.236 25.6081 208.062 25.5831C207.887 25.5731 207.723 25.533 207.558 25.493V24.7721C207.698 24.8121 207.847 24.8221 208.012 24.8472C208.176 24.8472 208.316 24.8572 208.425 24.8572C208.615 24.8572 208.769 24.8171 208.869 24.757C208.969 24.692 209.019 24.5918 209.019 24.4516C209.019 24.3115 208.969 24.2113 208.869 24.1463C208.769 24.0812 208.615 24.0461 208.425 24.0461H208.136V23.6807L208.465 22.9848H209.173L208.869 23.6807C209.208 23.6807 209.472 23.7558 209.662 23.9059C209.851 24.0561 209.956 24.2714 209.956 24.5368C209.956 24.8522 209.826 25.1175 209.587 25.3077C209.338 25.498 208.984 25.5981 208.515 25.5981H208.505M209.069 23.2551C208.176 23.2551 207.404 23.0649 206.751 22.6994C206.093 22.3189 205.589 21.8133 205.235 21.1574C204.881 20.5016 204.717 19.7556 204.717 18.9195C204.717 18.0835 204.896 17.3275 205.25 16.6817C205.599 16.0258 206.108 15.5152 206.761 15.1397C207.419 14.7592 208.186 14.584 209.083 14.584C209.652 14.584 210.18 14.6591 210.649 14.8143C211.127 14.9645 211.581 15.2048 212.025 15.5202L211.441 16.6867C211.062 16.4213 210.684 16.2311 210.295 16.1059C209.901 15.9808 209.497 15.9157 209.069 15.9157C208.505 15.9157 208.012 16.0409 207.583 16.2812C207.164 16.5365 206.835 16.8769 206.596 17.3325C206.357 17.7881 206.242 18.3088 206.242 18.9145C206.242 19.5203 206.357 20.041 206.596 20.4816C206.835 20.9371 207.164 21.2776 207.583 21.5329C207.997 21.7882 208.49 21.9134 209.069 21.9134C209.497 21.9134 209.901 21.8483 210.295 21.7231C210.684 21.598 211.062 21.4077 211.441 21.1424L212.025 22.3089C211.581 22.6243 211.112 22.8646 210.649 23.0198C210.17 23.17 209.652 23.2451 209.083 23.2451L209.069 23.2701V23.2551Z" fill="#592D34"/>
<path d="M215.443 20.2462H218.379L216.919 16.3262L215.428 20.2462H215.443ZM212.742 23.1299L216.071 14.7041H217.751L221.081 23.1299H219.441L218.808 21.4978H214.985L214.367 23.1299H212.727H212.742Z" fill="#592D34"/>
<path d="M169.553 32.0759H171.243C171.861 32.0759 172.319 31.9757 172.643 31.7605C172.962 31.5452 173.122 31.1797 173.122 30.659C173.122 30.1384 172.972 29.7329 172.658 29.5226C172.344 29.3073 171.876 29.1922 171.243 29.1922H169.553V32.0759ZM168.037 36.3614V27.9355H171.512C172.559 27.9355 173.341 28.1658 173.87 28.6214C174.388 29.077 174.652 29.7579 174.652 30.644C174.652 31.5302 174.388 32.201 173.87 32.6566C173.351 33.1122 172.569 33.3275 171.512 33.3275H169.543V36.3664H168.027H168.037V36.3614Z" fill="#592D34"/>
<path d="M176.113 36.3614V27.9355H182.055V29.2422H177.629V31.43H181.681V32.6416H177.629V35.0847H182.055V36.3914H176.113V36.3614Z" fill="#592D34"/>
<path d="M183.67 36.3614V27.9355H185.185V35.0347H188.984V36.3764H183.67V36.3614Z" fill="#592D34"/>
<path d="M192.494 33.4777H195.43L193.97 29.5576L192.479 33.4777H192.494ZM189.792 36.3614L193.122 27.9355H194.802L198.132 36.3614H196.492L195.859 34.7293H192.04L191.417 36.3614H189.777H189.792Z" fill="#592D34"/>
<path d="M202.344 36.3614V27.9355H203.859V36.3614H202.344Z" fill="#592D34"/>
<path d="M205.752 36.3614V27.9355H207.392L211.44 34.1135V27.9355H212.955V36.3614H211.315L207.262 30.1884V36.3614H205.752Z" fill="#592D34"/>
<path d="M218.809 36.4914C217.916 36.4914 217.144 36.3012 216.491 35.9357C215.833 35.5552 215.329 35.0496 214.975 34.3937C214.622 33.7329 214.457 32.9869 214.457 32.1559C214.457 31.3248 214.636 30.5638 214.985 29.918C215.339 29.2622 215.848 28.7565 216.501 28.376C217.159 27.9955 217.926 27.8203 218.824 27.8203C219.392 27.8203 219.92 27.8954 220.389 28.0506C220.867 28.2008 221.321 28.4411 221.765 28.7615L221.182 29.923C220.803 29.6577 220.424 29.4674 220.035 29.3423C219.641 29.2171 219.237 29.152 218.809 29.152C218.241 29.152 217.752 29.2772 217.323 29.5175C216.905 29.7728 216.576 30.1133 216.336 30.5688C216.097 31.0244 215.982 31.5451 215.982 32.1509C215.982 32.7566 216.097 33.2773 216.336 33.7179C216.576 34.1735 216.905 34.5139 217.323 34.7692C217.737 35.0246 218.231 35.1497 218.809 35.1497C219.237 35.1497 219.641 35.0846 220.035 34.9595C220.424 34.8343 220.803 34.6441 221.182 34.3787L221.765 35.5452C221.321 35.8606 220.853 36.1009 220.389 36.2511C219.91 36.4013 219.392 36.4814 218.824 36.4814L218.809 36.5065" fill="#592D34"/>
<path d="M223.174 36.3614V27.9355H224.689V35.0347H228.488V36.3764H223.174V36.3614Z" fill="#592D34"/>
<path d="M232.85 36.4916C231.718 36.4916 230.831 36.2013 230.203 35.6205C229.57 35.0398 229.256 34.1386 229.256 32.902V27.9307H230.771V32.902C230.771 33.4227 230.846 33.8382 231.011 34.1687C231.175 34.4991 231.414 34.7494 231.728 34.9046C232.042 35.0698 232.421 35.1449 232.85 35.1449C233.279 35.1449 233.672 35.0698 233.986 34.9046C234.3 34.7394 234.53 34.4991 234.694 34.1687C234.859 33.8382 234.934 33.4077 234.934 32.902V27.9307H236.449V32.902C236.449 34.1286 236.13 35.0398 235.502 35.6205C234.869 36.2013 233.986 36.4916 232.85 36.4916Z" fill="#592D34"/>
<path d="M240.612 36.4914C240.019 36.4914 239.491 36.4013 238.997 36.2361C238.504 36.0609 238.025 35.7805 237.557 35.39L238.125 34.1985C238.584 34.5389 239.012 34.7943 239.426 34.9595C239.845 35.1247 240.233 35.1998 240.627 35.1998C241.191 35.1998 241.619 35.0846 241.923 34.8694C242.227 34.6541 242.377 34.3387 242.377 33.9432C242.377 33.6778 242.292 33.4375 242.103 33.2473C241.913 33.057 241.649 32.9169 241.295 32.8568L240.004 32.6165C239.237 32.4763 238.683 32.2109 238.339 31.8455C238 31.465 237.836 31.0094 237.836 30.4787C237.836 29.9831 237.935 29.5425 238.15 29.137C238.364 28.7315 238.693 28.4161 239.137 28.1758C239.59 27.9355 240.159 27.8203 240.852 27.8203C241.345 27.8203 241.809 27.8854 242.292 28.0206C242.756 28.1608 243.224 28.4011 243.678 28.7565L243.11 29.948C242.721 29.6827 242.352 29.4824 241.988 29.3423C241.619 29.1921 241.255 29.127 240.891 29.127C240.383 29.127 240.004 29.2271 239.755 29.4424C239.501 29.6577 239.376 29.938 239.376 30.2885C239.376 30.5538 239.466 30.7691 239.655 30.9343C239.845 31.0995 240.109 31.2147 240.463 31.2747L241.749 31.5151C242.517 31.6552 243.06 31.9456 243.414 32.3762C243.768 32.8067 243.932 33.2873 243.932 33.833C243.932 34.6541 243.653 35.2999 243.1 35.7955C242.541 36.2912 241.724 36.5315 240.637 36.5315L240.612 36.4914Z" fill="#592D34"/>
<path d="M246.932 33.4783H249.873L248.408 29.5582L246.917 33.4783H246.932ZM246.379 26.8998C246.379 26.5344 246.414 26.229 246.504 25.9736C246.593 25.7183 246.718 25.518 246.893 25.3929C247.072 25.2677 247.296 25.1926 247.575 25.1926C247.765 25.1926 247.929 25.2327 248.079 25.3078C248.233 25.3829 248.383 25.483 248.508 25.5881C248.637 25.6883 248.762 25.7884 248.877 25.8685C248.991 25.9586 249.101 25.9937 249.206 25.9937C249.31 25.9937 249.42 25.9286 249.48 25.8034C249.544 25.6783 249.594 25.473 249.609 25.1826H250.442C250.442 25.5481 250.402 25.8535 250.312 26.1188C250.227 26.3842 250.098 26.5744 249.923 26.6996C249.744 26.8247 249.52 26.8898 249.24 26.8898C249.051 26.8898 248.886 26.8548 248.737 26.7747C248.587 26.6996 248.433 26.6094 248.308 26.5093C248.184 26.4092 248.054 26.3091 247.944 26.229C247.83 26.1539 247.715 26.1138 247.615 26.1138C247.501 26.1138 247.401 26.1789 247.336 26.3041C247.271 26.4292 247.222 26.6195 247.212 26.8998H246.379ZM244.231 36.362L247.566 27.9362H249.24L252.57 36.362H250.93L250.302 34.7299H246.479L245.861 36.362H244.221H244.231Z" fill="#592D34"/>
<path d="M256.822 35.1497C257.39 35.1497 257.884 35.0246 258.312 34.7692C258.731 34.5139 259.055 34.1635 259.284 33.7079C259.509 33.2523 259.623 32.7316 259.623 32.1409C259.623 31.5501 259.509 31.0144 259.284 30.5588C259.055 30.1032 258.731 29.7478 258.312 29.5075C257.894 29.2521 257.39 29.142 256.822 29.142C256.254 29.142 255.74 29.2672 255.322 29.5075C254.908 29.7478 254.564 30.1032 254.34 30.5588C254.11 31.0144 253.996 31.5351 253.996 32.1409C253.996 32.7466 254.11 33.2673 254.34 33.7079C254.564 34.1635 254.893 34.5039 255.322 34.7592C255.75 35.0145 256.244 35.1397 256.822 35.1397V35.1497ZM256.812 36.4914C255.915 36.4914 255.147 36.3012 254.489 35.9357C253.836 35.5703 253.328 35.0496 252.974 34.3937C252.625 33.7329 252.445 32.9869 252.445 32.1559C252.445 31.3248 252.625 30.5638 252.974 29.918C253.328 29.2622 253.836 28.7565 254.489 28.376C255.147 27.9955 255.915 27.8203 256.812 27.8203C257.709 27.8203 258.477 28.0106 259.12 28.376C259.778 28.7565 260.266 29.2622 260.635 29.918C260.989 30.5738 261.164 31.3198 261.164 32.1559C261.164 32.992 260.989 33.7479 260.635 34.3937C260.281 35.0496 259.778 35.5602 259.12 35.9357C258.462 36.3162 257.694 36.4914 256.812 36.4914Z" fill="#592D34"/>
<path d="M169.553 45.2985H171.243C171.861 45.2985 172.319 45.1984 172.643 44.9831C172.962 44.7678 173.122 44.4024 173.122 43.8817C173.122 43.361 172.972 42.9605 172.658 42.7452C172.344 42.53 171.876 42.4148 171.243 42.4148H169.553V45.2985ZM168.037 49.584V41.1582H171.512C172.559 41.1582 173.341 41.3835 173.87 41.8391C174.388 42.2947 174.652 42.9755 174.652 43.8617C174.652 44.7478 174.388 45.4187 173.87 45.8743C173.351 46.3298 172.569 46.5451 171.512 46.5451H169.543V49.584H168.027H168.037Z" fill="#592D34"/>
<path d="M177.629 45.0432H179.319C179.962 45.0432 180.43 44.9431 180.734 44.7378C181.033 44.5375 181.188 44.2071 181.188 43.7515C181.188 43.2559 181.048 42.9155 180.759 42.7152C180.47 42.5149 179.987 42.4098 179.319 42.4098H177.629V45.0432ZM176.113 49.584V41.1582H179.583C180.595 41.1582 181.362 41.3735 181.906 41.789C182.449 42.2045 182.713 42.8654 182.713 43.7265C182.713 44.4374 182.539 44.9781 182.185 45.3736C181.831 45.7641 181.313 46.0194 180.63 46.1446L183.157 49.574H181.362L179.045 46.2597H177.619V49.574H176.104L176.113 49.584Z" fill="#592D34"/>
<path d="M188.241 48.3724C188.809 48.3724 189.298 48.2472 189.726 47.9919C190.145 47.7366 190.474 47.3861 190.699 46.9305C190.928 46.4749 191.042 45.9543 191.042 45.3635C191.042 44.7728 190.928 44.2371 190.699 43.7815C190.474 43.3259 190.145 42.9704 189.726 42.7301C189.313 42.4798 188.809 42.3647 188.241 42.3647C187.673 42.3647 187.154 42.4898 186.736 42.7301C186.322 42.9704 185.983 43.3259 185.754 43.7815C185.529 44.2371 185.415 44.7577 185.415 45.3635C185.415 45.9693 185.529 46.49 185.754 46.9305C185.983 47.3861 186.307 47.7265 186.736 47.9819C187.169 48.2372 187.658 48.3624 188.241 48.3624V48.3774M188.226 49.7141C187.329 49.7141 186.561 49.5238 185.903 49.1584C185.25 48.7929 184.747 48.2722 184.393 47.6164C184.039 46.9606 183.859 46.2096 183.859 45.3785C183.859 44.5475 184.039 43.7865 184.393 43.1407C184.747 42.4848 185.25 41.9742 185.903 41.5987C186.561 41.2182 187.329 41.043 188.226 41.043C189.123 41.043 189.891 41.2332 190.534 41.5987C191.192 41.9792 191.686 42.4848 192.049 43.1407C192.403 43.7965 192.578 44.5425 192.578 45.3785C192.578 46.2146 192.403 46.9706 192.049 47.6164C191.695 48.2722 191.192 48.7779 190.534 49.1584C189.881 49.5389 189.108 49.7141 188.226 49.7141Z" fill="#592D34"/>
<path d="M195.454 48.2823H196.869C197.931 48.2823 198.684 48.042 199.167 47.5614C199.631 47.0808 199.87 46.3449 199.87 45.3736C199.87 44.4024 199.631 43.6664 199.167 43.1858C198.699 42.7052 197.931 42.4649 196.869 42.4649H195.454V48.2974V48.2823ZM193.943 49.584V41.1582H196.909C198.37 41.1582 199.481 41.5137 200.239 42.2196C200.997 42.9305 201.386 43.9768 201.386 45.3686C201.386 46.7604 201.007 47.8218 200.239 48.5176C199.467 49.2286 198.36 49.579 196.909 49.579H193.943V49.584Z" fill="#592D34"/>
<path d="M206.511 49.7133C205.375 49.7133 204.492 49.423 203.859 48.8422C203.231 48.2615 202.912 47.3603 202.912 46.1237V41.1523H204.427V46.1237C204.427 46.6444 204.502 47.0599 204.667 47.3904C204.831 47.7208 205.071 47.9711 205.385 48.1263C205.704 48.2915 206.082 48.3666 206.511 48.3666C206.94 48.3666 207.329 48.2915 207.643 48.1263C207.962 47.9611 208.186 47.7208 208.351 47.3904C208.515 47.0599 208.59 46.6294 208.59 46.1237V41.1523H210.105V46.1237C210.105 47.3503 209.791 48.2615 209.158 48.8422C208.53 49.423 207.643 49.7133 206.511 49.7133Z" fill="#592D34"/>
<path d="M214.102 49.5833V42.4892H211.555V41.1475H218.14V42.4892H215.617V49.5833H214.092H214.102Z" fill="#592D34"/>
<path d="M219.631 49.584V41.1582H221.146V49.584H219.631Z" fill="#592D34"/>
<path d="M225.687 49.584L222.357 41.1582H224.047L226.545 47.8518L229.027 41.1582H230.722L227.387 49.584H225.712H225.687Z" fill="#592D34"/>
<path d="M231.934 46.7003H234.87L233.409 42.7803L231.919 46.7003H231.934ZM229.232 49.584L232.562 41.1582H234.241L237.571 49.584H235.931L235.298 47.9519H231.48L230.862 49.584H229.217H229.232Z" fill="#592D34"/>
<path d="M25.911 38.1744C23.4286 40.5274 20.9312 41.8441 18.0001 41.8441C13.1699 41.8441 10.3834 38.1744 10.3834 32.5171C10.3834 26.1289 14.5556 21.9385 21.7986 21.9385C23.2641 21.9385 24.6499 22.0136 25.9011 22.1538V38.1593L25.911 38.1694M0 33.7687C0 43.386 5.63782 50.5102 14.3413 50.5102C19.695 50.5102 23.4286 48.0821 26.2051 45.3736V49.3337H36.1598V23.4204L39.8934 24.3666V17.0272C35.1379 15.1148 28.8421 13.4326 22.9102 13.4326C8.93277 13.4376 0 21.0674 0 33.7687Z" fill="#592D34"/>
<path d="M83.3963 41.9941C81.9308 41.9941 80.545 41.919 79.2938 41.7789V25.7733C81.7812 23.4203 84.2786 22.1036 87.2047 22.1036C92.04 22.1036 94.8265 25.7733 94.8265 31.4306C94.8265 37.8188 90.6492 42.0092 83.4063 42.0092M90.8635 13.4375C85.7043 13.4375 82.0454 15.7004 79.2938 18.2987V14.5389H69.05V40.5273L65.3164 39.576V46.9155C66.4779 47.3811 67.739 47.8366 69.05 48.2572V61.0386H79.2938V50.3749C80.3057 50.465 81.3027 50.5151 82.2996 50.5151C96.277 50.5151 105.21 42.8703 105.21 30.184C105.21 20.5666 99.572 13.4425 90.8635 13.4425" fill="#592D34"/>
<path d="M57.8445 14.5391H47.4512V49.3437H57.8445V14.5391Z" fill="#592D34"/>
<path d="M122.153 27.6857C122.986 23.4453 125.548 20.5616 130.154 20.5616C134.76 20.5616 137.257 23.8909 137.257 27.6857H122.153ZM147.222 30.4193C147.222 19.6655 141.484 12.7666 130.304 12.7666C119.123 12.7666 111.506 21.1674 111.506 32.3017C111.506 44.0417 119.88 51.0758 132.043 51.0758C136.699 51.0758 140.537 50.455 144.017 49.0632L141.609 41.6987C139.441 42.1693 137.093 42.4447 134.466 42.4447C126.984 42.4447 123.29 39.9415 122.228 34.9401H146.998C147.147 33.4231 147.222 31.8411 147.222 30.3992" fill="#592D34"/>
<path d="M57.8445 3.25391H47.4512V10.1227H57.8445V3.25391Z" fill="#592D34"/>
<path d="M140.676 10.123V3.46445L129.888 0L119.111 3.46445V10.123L129.888 6.76868L140.676 10.123Z" fill="#592D34"/>
</g>
<defs>
<clipPath id="clip0_2726_1287">
<rect width="261.164" height="61.0383" fill="white"/>
</clipPath>
</defs>
</svg>
